<svg xmlns="http://www.w3.org/2000/svg" xmlns:xlink="http://www.w3.org/1999/xlink" width="85.371" height="86" viewBox="0 0 85.371 86">
  <defs>
    <filter id="Combined_Shape" x="0" y="0" width="85.371" height="86" filterUnits="userSpaceOnUse">
      <feOffset dy="3" input="SourceAlpha"/>
      <feGaussianBlur stdDeviation="3" result="blur"/>
      <feFlood flood-opacity="0.161"/>
      <feComposite operator="in" in2="blur"/>
    </filter>
    <filter id="Combined_Shape-2" x="0" y="0" width="85.371" height="86" filterUnits="userSpaceOnUse">
      <feOffset dy="3" input="SourceAlpha"/>
      <feGaussianBlur stdDeviation="3" result="blur-2"/>
      <feFlood flood-opacity="0.161" result="color"/>
      <feComposite operator="out" in="SourceGraphic" in2="blur-2"/>
      <feComposite operator="in" in="color"/>
      <feComposite operator="in" in2="SourceGraphic"/>
    </filter>
  </defs>
  <g id="Bitcoin" transform="translate(9.5 6.5)">
    <g id="btc">
      <g data-type="innerShadowGroup">
        <g transform="matrix(1, 0, 0, 1, -9.5, -6.5)" filter="url(#Combined_Shape)" style="mix-blend-mode: darken;isolation: isolate">
          <path id="Combined_Shape-3" data-name="Combined Shape" d="M20.269,64.367A33.037,33.037,0,0,1,9.72,57.188a33.679,33.679,0,0,1,0-47.376A33.066,33.066,0,0,1,20.269,2.633a33.008,33.008,0,0,1,25.835,0A33.062,33.062,0,0,1,56.651,9.812a33.678,33.678,0,0,1,0,47.376A32.924,32.924,0,0,1,33.186,67,32.7,32.7,0,0,1,20.269,64.367ZM28.79,46.71c.9.2,1.721.409,2.512.608l.1.026c.152.076.139.152.121.267a.937.937,0,0,0-.015.155c-.527,1.7-.951,3.524-1.361,5.285a.319.319,0,0,0-.051.252c.027.066.107.118.26.17.472.105.977.239,1.466.37s.994.265,1.465.37a1.128,1.128,0,0,0,.373.105c.152,0,.183-.123.243-.371l.013-.051c.21-.844.422-1.73.627-2.586l0-.005h0c.205-.857.418-1.742.627-2.588.078-.237.217-.356.412-.356a.685.685,0,0,1,.216.04,27.6,27.6,0,0,0,4.12.368,15.758,15.758,0,0,0,2.266-.157,6.49,6.49,0,0,0,4.291-2.325,10.315,10.315,0,0,0,1.885-3.911,8.289,8.289,0,0,0,.211-3.593,6.676,6.676,0,0,0-2.513-3.594c-.21-.158-.421-.292-.626-.421s-.42-.265-.63-.424l.01,0a.657.657,0,0,0,.271-.065.384.384,0,0,1,.138-.04,6.321,6.321,0,0,0,2.3-1.373A6.654,6.654,0,0,0,49.1,29.8a6.392,6.392,0,0,0-.629-4.966A8.869,8.869,0,0,0,45.749,22.3L43.7,21.361l-1.411-.647c-.192-.065-.286-.125-.328-.21a.415.415,0,0,1,.015-.319A8.879,8.879,0,0,0,42.4,18.6l.04-.16c.3-1.2.6-2.436.9-3.754a.136.136,0,0,1-.1-.053.138.138,0,0,0-.1-.052c-.494-.136-.971-.253-1.432-.366-.625-.153-1.216-.3-1.814-.48a.334.334,0,0,0-.145-.041c-.107,0-.168.093-.168.254l-.158.634-.157.635c-.452,1.481-.77,2.8-1.047,4.015a1.4,1.4,0,0,0-.106.131c-.068.092-.14.186-.209.186-.426-.108-.887-.217-1.333-.323-.429-.1-.873-.207-1.284-.311a.8.8,0,0,0,.105-.423c.206-.833.416-1.705.618-2.55.21-.872.426-1.77.638-2.628a.32.32,0,0,0,.051-.252c-.027-.067-.107-.119-.26-.17-1.073-.218-2-.427-3.037-.74a.628.628,0,0,0-.2-.04c-.172,0-.249.13-.324.356-.205.88-.414,1.75-.616,2.59l0,.006h0c-.209.871-.426,1.773-.638,2.687-.076.226-.152.356-.325.356a.628.628,0,0,1-.2-.04c-.576-.158-1.162-.293-1.729-.423s-1.15-.265-1.726-.422-1.158-.292-1.724-.422c-.489-.112-.994-.228-1.49-.359l.059-.224.014-.052-.1.076c-.085.065-.145.111-.188.141.072.021.143.04.216.059-.131.493-.265,1.011-.4,1.511-.156.6-.316,1.222-.473,1.806a.233.233,0,0,0-.02.228.252.252,0,0,0,.229.089l.49.122c.724.178,1.471.363,2.232.618a1.825,1.825,0,0,1,1.255,2.113c-1.267,5.545-2.645,11-3.978,16.274a1.117,1.117,0,0,1-1.153,1.006,1.715,1.715,0,0,1-.417-.054,17.808,17.808,0,0,1-2.3-.528H19.88c-.3,0-.408,0-.512.317-.32.859-.743,1.82-1.153,2.748-.1.211-.185.4-.261.581s-.157.37-.262.581c2.6.656,5.11,1.318,7.326,1.9a.653.653,0,0,1-.064.284.389.389,0,0,0-.039.139c-.527,1.7-.951,3.523-1.361,5.284a.325.325,0,0,0-.052.252c.027.067.108.119.261.171,1.03.208,2.093.422,3.142.739a.617.617,0,0,0,.193.041c.107,0,.139-.068.192-.182l.033-.07c.105-.476.238-.959.367-1.426s.262-.951.366-1.427.239-.963.368-1.433.26-.946.365-1.419h0Zm6.176-3.065a28.821,28.821,0,0,1-5.234-1.057.366.366,0,0,0-.21-.106c.418-1.585.733-3.064,1.152-4.544.209-1.057.523-2.008.733-3.065.1-.317.1-.423.419-.317A20.972,20.972,0,0,1,38,36.459a6.4,6.4,0,0,1,2.2,1.9,3.386,3.386,0,0,1-1.675,4.967,6.645,6.645,0,0,1-2.335.375C35.791,43.7,35.384,43.681,34.966,43.646Zm-1.256-12.47c-.418-.105-.733-.212-1.152-.317-.209-.105-.314-.212-.209-.423.628-2.219,1.151-4.333,1.675-6.552.1-.317.209-.423.523-.317a31.849,31.849,0,0,1,4.5,1.373,5,5,0,0,1,2.408,2.008,3.086,3.086,0,0,1-1.99,4.544,6.715,6.715,0,0,1-1.151.212A32.31,32.31,0,0,1,33.709,31.175Z" transform="translate(9.5 6.5)" fill="#f5b300" stroke="#707070" stroke-width="1"/>
        </g>
        <path id="Combined_Shape-4" data-name="Combined Shape" d="M20.269,64.367A33.037,33.037,0,0,1,9.72,57.188a33.679,33.679,0,0,1,0-47.376A33.066,33.066,0,0,1,20.269,2.633a33.008,33.008,0,0,1,25.835,0A33.062,33.062,0,0,1,56.651,9.812a33.678,33.678,0,0,1,0,47.376A32.924,32.924,0,0,1,33.186,67,32.7,32.7,0,0,1,20.269,64.367ZM28.79,46.71c.9.2,1.721.409,2.512.608l.1.026c.152.076.139.152.121.267a.937.937,0,0,0-.015.155c-.527,1.7-.951,3.524-1.361,5.285a.319.319,0,0,0-.051.252c.027.066.107.118.26.17.472.105.977.239,1.466.37s.994.265,1.465.37a1.128,1.128,0,0,0,.373.105c.152,0,.183-.123.243-.371l.013-.051c.21-.844.422-1.73.627-2.586l0-.005h0c.205-.857.418-1.742.627-2.588.078-.237.217-.356.412-.356a.685.685,0,0,1,.216.04,27.6,27.6,0,0,0,4.12.368,15.758,15.758,0,0,0,2.266-.157,6.49,6.49,0,0,0,4.291-2.325,10.315,10.315,0,0,0,1.885-3.911,8.289,8.289,0,0,0,.211-3.593,6.676,6.676,0,0,0-2.513-3.594c-.21-.158-.421-.292-.626-.421s-.42-.265-.63-.424l.01,0a.657.657,0,0,0,.271-.065.384.384,0,0,1,.138-.04,6.321,6.321,0,0,0,2.3-1.373A6.654,6.654,0,0,0,49.1,29.8a6.392,6.392,0,0,0-.629-4.966A8.869,8.869,0,0,0,45.749,22.3L43.7,21.361l-1.411-.647c-.192-.065-.286-.125-.328-.21a.415.415,0,0,1,.015-.319A8.879,8.879,0,0,0,42.4,18.6l.04-.16c.3-1.2.6-2.436.9-3.754a.136.136,0,0,1-.1-.053.138.138,0,0,0-.1-.052c-.494-.136-.971-.253-1.432-.366-.625-.153-1.216-.3-1.814-.48a.334.334,0,0,0-.145-.041c-.107,0-.168.093-.168.254l-.158.634-.157.635c-.452,1.481-.77,2.8-1.047,4.015a1.4,1.4,0,0,0-.106.131c-.068.092-.14.186-.209.186-.426-.108-.887-.217-1.333-.323-.429-.1-.873-.207-1.284-.311a.8.8,0,0,0,.105-.423c.206-.833.416-1.705.618-2.55.21-.872.426-1.77.638-2.628a.32.32,0,0,0,.051-.252c-.027-.067-.107-.119-.26-.17-1.073-.218-2-.427-3.037-.74a.628.628,0,0,0-.2-.04c-.172,0-.249.13-.324.356-.205.88-.414,1.75-.616,2.59l0,.006h0c-.209.871-.426,1.773-.638,2.687-.076.226-.152.356-.325.356a.628.628,0,0,1-.2-.04c-.576-.158-1.162-.293-1.729-.423s-1.15-.265-1.726-.422-1.158-.292-1.724-.422c-.489-.112-.994-.228-1.49-.359l.059-.224.014-.052-.1.076c-.085.065-.145.111-.188.141.072.021.143.04.216.059-.131.493-.265,1.011-.4,1.511-.156.6-.316,1.222-.473,1.806a.233.233,0,0,0-.02.228.252.252,0,0,0,.229.089l.49.122c.724.178,1.471.363,2.232.618a1.825,1.825,0,0,1,1.255,2.113c-1.267,5.545-2.645,11-3.978,16.274a1.117,1.117,0,0,1-1.153,1.006,1.715,1.715,0,0,1-.417-.054,17.808,17.808,0,0,1-2.3-.528H19.88c-.3,0-.408,0-.512.317-.32.859-.743,1.82-1.153,2.748-.1.211-.185.4-.261.581s-.157.37-.262.581c2.6.656,5.11,1.318,7.326,1.9a.653.653,0,0,1-.064.284.389.389,0,0,0-.039.139c-.527,1.7-.951,3.523-1.361,5.284a.325.325,0,0,0-.052.252c.027.067.108.119.261.171,1.03.208,2.093.422,3.142.739a.617.617,0,0,0,.193.041c.107,0,.139-.068.192-.182l.033-.07c.105-.476.238-.959.367-1.426s.262-.951.366-1.427.239-.963.368-1.433.26-.946.365-1.419h0Zm6.176-3.065a28.821,28.821,0,0,1-5.234-1.057.366.366,0,0,0-.21-.106c.418-1.585.733-3.064,1.152-4.544.209-1.057.523-2.008.733-3.065.1-.317.1-.423.419-.317A20.972,20.972,0,0,1,38,36.459a6.4,6.4,0,0,1,2.2,1.9,3.386,3.386,0,0,1-1.675,4.967,6.645,6.645,0,0,1-2.335.375C35.791,43.7,35.384,43.681,34.966,43.646Zm-1.256-12.47c-.418-.105-.733-.212-1.152-.317-.209-.105-.314-.212-.209-.423.628-2.219,1.151-4.333,1.675-6.552.1-.317.209-.423.523-.317a31.849,31.849,0,0,1,4.5,1.373,5,5,0,0,1,2.408,2.008,3.086,3.086,0,0,1-1.99,4.544,6.715,6.715,0,0,1-1.151.212A32.31,32.31,0,0,1,33.709,31.175Z" fill="#f5b300" style="mix-blend-mode: darken;isolation: isolate"/>
        <g transform="matrix(1, 0, 0, 1, -9.5, -6.5)" filter="url(#Combined_Shape-2)" style="mix-blend-mode: darken;isolation: isolate">
          <path id="Combined_Shape-5" data-name="Combined Shape" d="M20.269,64.367A33.037,33.037,0,0,1,9.72,57.188a33.679,33.679,0,0,1,0-47.376A33.066,33.066,0,0,1,20.269,2.633a33.008,33.008,0,0,1,25.835,0A33.062,33.062,0,0,1,56.651,9.812a33.678,33.678,0,0,1,0,47.376A32.924,32.924,0,0,1,33.186,67,32.7,32.7,0,0,1,20.269,64.367ZM28.79,46.71c.9.2,1.721.409,2.512.608l.1.026c.152.076.139.152.121.267a.937.937,0,0,0-.015.155c-.527,1.7-.951,3.524-1.361,5.285a.319.319,0,0,0-.051.252c.027.066.107.118.26.17.472.105.977.239,1.466.37s.994.265,1.465.37a1.128,1.128,0,0,0,.373.105c.152,0,.183-.123.243-.371l.013-.051c.21-.844.422-1.73.627-2.586l0-.005h0c.205-.857.418-1.742.627-2.588.078-.237.217-.356.412-.356a.685.685,0,0,1,.216.04,27.6,27.6,0,0,0,4.12.368,15.758,15.758,0,0,0,2.266-.157,6.49,6.49,0,0,0,4.291-2.325,10.315,10.315,0,0,0,1.885-3.911,8.289,8.289,0,0,0,.211-3.593,6.676,6.676,0,0,0-2.513-3.594c-.21-.158-.421-.292-.626-.421s-.42-.265-.63-.424l.01,0a.657.657,0,0,0,.271-.065.384.384,0,0,1,.138-.04,6.321,6.321,0,0,0,2.3-1.373A6.654,6.654,0,0,0,49.1,29.8a6.392,6.392,0,0,0-.629-4.966A8.869,8.869,0,0,0,45.749,22.3L43.7,21.361l-1.411-.647c-.192-.065-.286-.125-.328-.21a.415.415,0,0,1,.015-.319A8.879,8.879,0,0,0,42.4,18.6l.04-.16c.3-1.2.6-2.436.9-3.754a.136.136,0,0,1-.1-.053.138.138,0,0,0-.1-.052c-.494-.136-.971-.253-1.432-.366-.625-.153-1.216-.3-1.814-.48a.334.334,0,0,0-.145-.041c-.107,0-.168.093-.168.254l-.158.634-.157.635c-.452,1.481-.77,2.8-1.047,4.015a1.4,1.4,0,0,0-.106.131c-.068.092-.14.186-.209.186-.426-.108-.887-.217-1.333-.323-.429-.1-.873-.207-1.284-.311a.8.8,0,0,0,.105-.423c.206-.833.416-1.705.618-2.55.21-.872.426-1.77.638-2.628a.32.32,0,0,0,.051-.252c-.027-.067-.107-.119-.26-.17-1.073-.218-2-.427-3.037-.74a.628.628,0,0,0-.2-.04c-.172,0-.249.13-.324.356-.205.88-.414,1.75-.616,2.59l0,.006h0c-.209.871-.426,1.773-.638,2.687-.076.226-.152.356-.325.356a.628.628,0,0,1-.2-.04c-.576-.158-1.162-.293-1.729-.423s-1.15-.265-1.726-.422-1.158-.292-1.724-.422c-.489-.112-.994-.228-1.49-.359l.059-.224.014-.052-.1.076c-.085.065-.145.111-.188.141.072.021.143.04.216.059-.131.493-.265,1.011-.4,1.511-.156.6-.316,1.222-.473,1.806a.233.233,0,0,0-.02.228.252.252,0,0,0,.229.089l.49.122c.724.178,1.471.363,2.232.618a1.825,1.825,0,0,1,1.255,2.113c-1.267,5.545-2.645,11-3.978,16.274a1.117,1.117,0,0,1-1.153,1.006,1.715,1.715,0,0,1-.417-.054,17.808,17.808,0,0,1-2.3-.528H19.88c-.3,0-.408,0-.512.317-.32.859-.743,1.82-1.153,2.748-.1.211-.185.4-.261.581s-.157.37-.262.581c2.6.656,5.11,1.318,7.326,1.9a.653.653,0,0,1-.064.284.389.389,0,0,0-.039.139c-.527,1.7-.951,3.523-1.361,5.284a.325.325,0,0,0-.052.252c.027.067.108.119.261.171,1.03.208,2.093.422,3.142.739a.617.617,0,0,0,.193.041c.107,0,.139-.068.192-.182l.033-.07c.105-.476.238-.959.367-1.426s.262-.951.366-1.427.239-.963.368-1.433.26-.946.365-1.419h0Zm6.176-3.065a28.821,28.821,0,0,1-5.234-1.057.366.366,0,0,0-.21-.106c.418-1.585.733-3.064,1.152-4.544.209-1.057.523-2.008.733-3.065.1-.317.1-.423.419-.317A20.972,20.972,0,0,1,38,36.459a6.4,6.4,0,0,1,2.2,1.9,3.386,3.386,0,0,1-1.675,4.967,6.645,6.645,0,0,1-2.335.375C35.791,43.7,35.384,43.681,34.966,43.646Zm-1.256-12.47c-.418-.105-.733-.212-1.152-.317-.209-.105-.314-.212-.209-.423.628-2.219,1.151-4.333,1.675-6.552.1-.317.209-.423.523-.317a31.849,31.849,0,0,1,4.5,1.373,5,5,0,0,1,2.408,2.008,3.086,3.086,0,0,1-1.99,4.544,6.715,6.715,0,0,1-1.151.212A32.31,32.31,0,0,1,33.709,31.175Z" transform="translate(9.5 6.5)" fill="#fff"/>
        </g>
        <path id="Combined_Shape-6" data-name="Combined Shape" d="M20.269,64.367A33.037,33.037,0,0,1,9.72,57.188a33.679,33.679,0,0,1,0-47.376A33.066,33.066,0,0,1,20.269,2.633a33.008,33.008,0,0,1,25.835,0A33.062,33.062,0,0,1,56.651,9.812a33.678,33.678,0,0,1,0,47.376A32.924,32.924,0,0,1,33.186,67,32.7,32.7,0,0,1,20.269,64.367ZM28.79,46.71c.9.2,1.721.409,2.512.608l.1.026c.152.076.139.152.121.267a.937.937,0,0,0-.015.155c-.527,1.7-.951,3.524-1.361,5.285a.319.319,0,0,0-.051.252c.027.066.107.118.26.17.472.105.977.239,1.466.37s.994.265,1.465.37a1.128,1.128,0,0,0,.373.105c.152,0,.183-.123.243-.371l.013-.051c.21-.844.422-1.73.627-2.586l0-.005h0c.205-.857.418-1.742.627-2.588.078-.237.217-.356.412-.356a.685.685,0,0,1,.216.04,27.6,27.6,0,0,0,4.12.368,15.758,15.758,0,0,0,2.266-.157,6.49,6.49,0,0,0,4.291-2.325,10.315,10.315,0,0,0,1.885-3.911,8.289,8.289,0,0,0,.211-3.593,6.676,6.676,0,0,0-2.513-3.594c-.21-.158-.421-.292-.626-.421s-.42-.265-.63-.424l.01,0a.657.657,0,0,0,.271-.065.384.384,0,0,1,.138-.04,6.321,6.321,0,0,0,2.3-1.373A6.654,6.654,0,0,0,49.1,29.8a6.392,6.392,0,0,0-.629-4.966A8.869,8.869,0,0,0,45.749,22.3L43.7,21.361l-1.411-.647c-.192-.065-.286-.125-.328-.21a.415.415,0,0,1,.015-.319A8.879,8.879,0,0,0,42.4,18.6l.04-.16c.3-1.2.6-2.436.9-3.754a.136.136,0,0,1-.1-.053.138.138,0,0,0-.1-.052c-.494-.136-.971-.253-1.432-.366-.625-.153-1.216-.3-1.814-.48a.334.334,0,0,0-.145-.041c-.107,0-.168.093-.168.254l-.158.634-.157.635c-.452,1.481-.77,2.8-1.047,4.015a1.4,1.4,0,0,0-.106.131c-.068.092-.14.186-.209.186-.426-.108-.887-.217-1.333-.323-.429-.1-.873-.207-1.284-.311a.8.8,0,0,0,.105-.423c.206-.833.416-1.705.618-2.55.21-.872.426-1.77.638-2.628a.32.32,0,0,0,.051-.252c-.027-.067-.107-.119-.26-.17-1.073-.218-2-.427-3.037-.74a.628.628,0,0,0-.2-.04c-.172,0-.249.13-.324.356-.205.88-.414,1.75-.616,2.59l0,.006h0c-.209.871-.426,1.773-.638,2.687-.076.226-.152.356-.325.356a.628.628,0,0,1-.2-.04c-.576-.158-1.162-.293-1.729-.423s-1.15-.265-1.726-.422-1.158-.292-1.724-.422c-.489-.112-.994-.228-1.49-.359l.059-.224.014-.052-.1.076c-.085.065-.145.111-.188.141.072.021.143.04.216.059-.131.493-.265,1.011-.4,1.511-.156.6-.316,1.222-.473,1.806a.233.233,0,0,0-.02.228.252.252,0,0,0,.229.089l.49.122c.724.178,1.471.363,2.232.618a1.825,1.825,0,0,1,1.255,2.113c-1.267,5.545-2.645,11-3.978,16.274a1.117,1.117,0,0,1-1.153,1.006,1.715,1.715,0,0,1-.417-.054,17.808,17.808,0,0,1-2.3-.528H19.88c-.3,0-.408,0-.512.317-.32.859-.743,1.82-1.153,2.748-.1.211-.185.4-.261.581s-.157.37-.262.581c2.6.656,5.11,1.318,7.326,1.9a.653.653,0,0,1-.064.284.389.389,0,0,0-.039.139c-.527,1.7-.951,3.523-1.361,5.284a.325.325,0,0,0-.052.252c.027.067.108.119.261.171,1.03.208,2.093.422,3.142.739a.617.617,0,0,0,.193.041c.107,0,.139-.068.192-.182l.033-.07c.105-.476.238-.959.367-1.426s.262-.951.366-1.427.239-.963.368-1.433.26-.946.365-1.419h0Zm6.176-3.065a28.821,28.821,0,0,1-5.234-1.057.366.366,0,0,0-.21-.106c.418-1.585.733-3.064,1.152-4.544.209-1.057.523-2.008.733-3.065.1-.317.1-.423.419-.317A20.972,20.972,0,0,1,38,36.459a6.4,6.4,0,0,1,2.2,1.9,3.386,3.386,0,0,1-1.675,4.967,6.645,6.645,0,0,1-2.335.375C35.791,43.7,35.384,43.681,34.966,43.646Zm-1.256-12.47c-.418-.105-.733-.212-1.152-.317-.209-.105-.314-.212-.209-.423.628-2.219,1.151-4.333,1.675-6.552.1-.317.209-.423.523-.317a31.849,31.849,0,0,1,4.5,1.373,5,5,0,0,1,2.408,2.008,3.086,3.086,0,0,1-1.99,4.544,6.715,6.715,0,0,1-1.151.212A32.31,32.31,0,0,1,33.709,31.175Z" fill="none" stroke="#707070" stroke-width="1" style="mix-blend-mode: darken;isolation: isolate"/>
      </g>
    </g>
  </g>
</svg>
