<svg xmlns="http://www.w3.org/2000/svg" width="38" height="38" viewBox="0 0 38 38">
  <g id="copy" transform="translate(-1 -1)">
    <path id="Контур_101" data-name="Контур 101" d="M14.5,33.5V1.5H30.793L38.5,9.207V33.5Z" fill="#ffe308"/>
    <path id="Контур_102" data-name="Контур 102" d="M30.586,2,38,9.414V33H15V2H30.586M31,1H14V34H39V9L31,1Z" fill="#4788c7"/>
    <path id="Контур_103" data-name="Контур 103" d="M30.5,9.5v-8h.293L38.5,9.207V9.5Z" fill="#b6dcfe"/>
    <path id="Контур_104" data-name="Контур 104" d="M31,2.414,37.586,9H31V2.414M31,1H30v9h9V9L31,1Z" fill="#4788c7"/>
    <g id="Сгруппировать_19" data-name="Сгруппировать 19">
      <path id="Контур_105" data-name="Контур 105" d="M1.5,38.5V6.5H17.793L25.5,14.207V38.5Z" fill="#fff"/>
      <path id="Контур_106" data-name="Контур 106" d="M17.586,7,25,14.414V38H2V7H17.586M18,6H1V39H26V14L18,6Z" fill="#4788c7"/>
    </g>
    <g id="Сгруппировать_20" data-name="Сгруппировать 20">
      <path id="Контур_107" data-name="Контур 107" d="M17.5,14.5v-8h.293L25.5,14.207V14.5Z" fill="#dff0fe"/>
      <path id="Контур_108" data-name="Контур 108" d="M18,7.414,24.586,14H18V7.414M18,6H17v9h9V14L18,6Z" fill="#4788c7"/>
    </g>
  </g>
</svg>
