<svg xmlns="http://www.w3.org/2000/svg" width="110.041" height="110.028" viewBox="0 0 110.041 110.028">
  <g id="Сгруппировать_3" data-name="Сгруппировать 3" transform="translate(-125.527 -11.041)">
    <path id="Контур_1" data-name="Контур 1" d="M173.625,13.475a11.083,11.083,0,0,1,13.86,0l8.69,7.48a12.19,12.19,0,0,0,6.93,2.585h9.35A10.657,10.657,0,0,1,223.07,34.155V43.5a12.338,12.338,0,0,0,2.585,6.93l7.48,8.69a11.083,11.083,0,0,1,0,13.86l-7.48,8.69a12.19,12.19,0,0,0-2.585,6.93v9.35a10.657,10.657,0,0,1-10.615,10.615H203.1a12.338,12.338,0,0,0-6.93,2.585l-8.69,7.48a11.083,11.083,0,0,1-13.86,0l-8.69-7.48a12.19,12.19,0,0,0-6.93-2.585H148.49a10.657,10.657,0,0,1-10.615-10.615V88.55a12.515,12.515,0,0,0-2.53-6.875L127.92,72.93a11.074,11.074,0,0,1,0-13.75l7.425-8.745a12.515,12.515,0,0,0,2.53-6.875V34.1A10.657,10.657,0,0,1,148.49,23.485h9.515a12.338,12.338,0,0,0,6.93-2.585Z" fill="#fecb0a"/>
    <path id="Контур_2" data-name="Контур 2" d="M173.845,83.435a4.121,4.121,0,0,1-2.915-1.21l-13.31-13.31a4.122,4.122,0,0,1,5.83-5.83l10.4,10.4,23.65-23.65a4.122,4.122,0,1,1,5.83,5.83L176.76,82.225A4.121,4.121,0,0,1,173.845,83.435Z" fill="#161616"/>
  </g>
</svg>
