<svg xmlns="http://www.w3.org/2000/svg" xmlns:xlink="http://www.w3.org/1999/xlink" width="28.954" height="28.954" viewBox="0 0 28.954 28.954">
  <defs>
    <clipPath id="clip-path">
      <path id="Clip_2" data-name="Clip 2" d="M0,0H28.954V28.954H0Z" transform="translate(0 0.004)" fill="none"/>
    </clipPath>
  </defs>
  <g id="Сгруппировать_22" data-name="Сгруппировать 22" transform="translate(0 -0.073)">
    <g id="Group_3" data-name="Group 3" transform="translate(0 0.069)" clip-path="url(#clip-path)">
      <path id="Fill_1" data-name="Fill 1" d="M11,28.527A14.474,14.474,0,1,1,28.526,17.955,14.472,14.472,0,0,1,11,28.527" transform="translate(0 0.004)" fill="#ee3826"/>
    </g>
    <path id="Fill_4" data-name="Fill 4" d="M9.615,27.267V0a14.475,14.475,0,0,0,0,27.267" transform="translate(0 0.917)" fill="#ee3826"/>
    <path id="Fill_6" data-name="Fill 6" d="M7.838.312,7.745.293,7.584.261,7.49.243,7.323.213,7.239.2,7.03.166,6.989.159,6.738.124,6.672.115,6.488.093,6.4.084,6.236.067,6.145.058,5.978.044,5.894.038,5.7.025l-.058,0L5.394.01H5.353L5.146,0H5.067L4.9,0H4.81L4.643,0H4.56l-.183,0-.063,0q-.248.009-.5.027L3.753.042,3.573.057,3.494.064l-.17.017L3.246.09l-.18.022L3,.12q-.246.032-.49.072L2.469.2l-.2.035L2.2.246,2.028.28l-.07.014-.18.038-.06.013L1.5.4,1.482.4,1.253.458h0Q.617.622,0,.843V28.11q.675.24,1.385.416a14.42,14.42,0,0,0,5.749.248l.025,0,.2-.034.043-.008.19-.035.056-.011.179-.036.067-.015.169-.037.079-.018.158-.037.119-.03.178-.046.175-.048.077-.022.165-.048.077-.024.164-.051.076-.025L9.5,28.19l.074-.025.165-.058.039-.014h0l.1-.037V.9l-.1-.036v0C9.69.831,9.6.8,9.519.773L9.494.764Q9.326.708,9.157.655L9.109.64C9,.608,8.9.577,8.79.547L8.723.527q-.191-.053-.384-.1L8.089.367,8.009.349,7.838.312" transform="translate(9.615 0.074)" fill="#f0f0f1"/>
    <path id="Fill_8" data-name="Fill 8" d="M4.731,10.651h.187l-.06-2.488.173-.148c.78.093,1.479.177,2.26.272l-.2-.68a.32.32,0,0,1,.1-.323L9.461,5.36l-.47-.231c-.206-.077-.148-.2-.074-.49l.345-1.315-1.315.289a.2.2,0,0,1-.233-.146l-.17-.619L6.5,4.067c-.148.2-.448.2-.355-.256l.445-2.468L6,1.667c-.168.1-.335.113-.429-.061L4.731,0,3.893,1.606c-.094.174-.262.158-.429.061l-.6-.323.445,2.468c.093.452-.207.452-.355.256L1.917,2.849l-.169.619a.2.2,0,0,1-.233.146L.2,3.325.544,4.639c.074.292.132.412-.074.49L0,5.36,2.267,7.284a.319.319,0,0,1,.1.323l-.2.68c.779-.095,1.479-.179,2.259-.272l.173.148-.06,2.488Z" transform="translate(9.892 9.343)" fill="#ee3826"/>
  </g>
</svg>
