<svg xmlns="http://www.w3.org/2000/svg" width="29.995" height="29.995" viewBox="0 0 29.995 29.995">
  <g id="Сгруппировать_24" data-name="Сгруппировать 24" transform="translate(0)">
    <path id="Fill_1" data-name="Fill 1" d="M.443,11.4A14.994,14.994,0,1,1,11.4,29.552,14.992,14.992,0,0,1,.443,11.4" fill="#0076bc"/>
    <path id="Fill_3" data-name="Fill 3" d="M12.161,25.971v0l.377-1.175-1-.73h1.238l.382-1.183.385,1.178h1.238l-1,.731.387,1.178-1.006-.725-1,.728Zm-5.8-1.53v0l.379-1.178-1-.728,1.241,0,.383-1.18.383,1.178H8.986l-1,.73.385,1.178-1-.727-1,.731Zm13.4-.031,0,0-1-.731-1.007.728.391-1.182-1-.732,1.238,0,.387-1.178.381,1.181,1.241,0-1.007.727.379,1.178ZM24,20.154l0,0-1-.728-1,.728.38-1.179-1.007-.727,1.241,0,.382-1.178.385,1.178,1.241,0-1,.733L24,20.151Zm-21.88-.006v0l.385-1.177-1-.73H2.744l.383-1.184.385,1.181H4.75l-1,.73.383,1.178-1-.727-1,.73ZM.626,14.6v0l.38-1.178L0,12.694l1.241,0,.38-1.181.388,1.178,1.241,0-1,.733L2.635,14.6l-1.007-.727-1,.731Zm24.867-.023,0,0-1-.733-1.006.724.387-1.178-1-.733,1.241.005.391-1.178.377,1.181,1.241.005-1.007.724.38,1.18ZM4.044,8.864l0,0-1-.729-1,.728.377-1.179-1-.727,1.241,0,.382-1.18.385,1.178H4.662l-1,.73.385,1.181ZM21.9,8.775v0L22.281,7.6l-1.007-.73h1.241L22.9,5.682l.385,1.184,1.241,0-1,.733L23.9,8.77l-1-.727-1,.73ZM19.848,4.652l0,0-1-.726-1,.725.38-1.179-1.007-.727,1.241,0,.38-1.178.388,1.178,1.238,0-1,.733.385,1.178ZM8.276,4.634l0,0-1-.728-1,.728.38-1.181-1-.728H6.888l.383-1.18.385,1.178H8.894l-1,.73.382,1.18Zm3.777-1.544v0l.384-1.18-1-.727h1.241L13.06,0l.382,1.181h1.241l-1,.727.382,1.178-1-.727-1,.73Z" transform="translate(1.921 2.109)" fill="#ffd203"/>
  </g>
</svg>
