<svg xmlns="http://www.w3.org/2000/svg" xmlns:xlink="http://www.w3.org/1999/xlink" width="29.844" height="30.844" viewBox="0 0 29.844 30.844">
  <defs>
    <clipPath id="clip-path">
      <path id="Clip_2" data-name="Clip 2" d="M14.91,0A14.922,14.922,0,0,0,.441,11.338h0A14.916,14.916,0,0,0,11.338,29.4h0A14.917,14.917,0,0,0,29.4,18.506h0A14.916,14.916,0,0,0,18.506.441h0A14.949,14.949,0,0,0,14.911,0h0Z" transform="translate(0.029 0.053)" fill="none"/>
    </clipPath>
    <clipPath id="clip-path-2">
      <path id="Clip_5" data-name="Clip 5" d="M0,0H29.844V29.844H0Z" transform="translate(0.028 0.053)" fill="none"/>
    </clipPath>
  </defs>
  <g id="Page_1" data-name="Page 1" transform="translate(-0.028 -0.076)">
    <g id="Group_3" data-name="Group 3" transform="translate(0 0.023)">
      <path id="Clip_2-2" data-name="Clip 2" d="M14.91,0A14.922,14.922,0,0,0,.441,11.338h0A14.916,14.916,0,0,0,11.338,29.4h0A14.917,14.917,0,0,0,29.4,18.506h0A14.916,14.916,0,0,0,18.506.441h0A14.949,14.949,0,0,0,14.911,0h0Z" transform="translate(0.029 0.053)" fill="none"/>
      <g id="Group_3-2" data-name="Group 3" clip-path="url(#clip-path)">
        <path id="Fill_1" data-name="Fill 1" d="M14.91,0A14.922,14.922,0,0,0,.441,11.338h0A14.916,14.916,0,0,0,11.338,29.4h0A14.917,14.917,0,0,0,29.4,18.506h0A14.916,14.916,0,0,0,18.506.441h0A14.949,14.949,0,0,0,14.911,0h0Z" transform="translate(0.029 0.053)" fill="none"/>
      </g>
    </g>
    <g id="Group_13" data-name="Group 13" transform="translate(0 0.023)">
      <g id="Group_6" data-name="Group 6">
        <path id="Clip_5-2" data-name="Clip 5" d="M0,0H29.844V29.844H0Z" transform="translate(0.028 0.053)" fill="none"/>
      </g>
      <g id="Сгруппировать_23" data-name="Сгруппировать 23">
        <g id="Group_6-2" data-name="Group 6" transform="translate(0 1)" clip-path="url(#clip-path-2)">
          <path id="Fill_4" data-name="Fill 4" d="M.441,11.338A14.918,14.918,0,1,1,11.338,29.4,14.916,14.916,0,0,1,.441,11.338" transform="translate(0.028 0.053)" fill="#223c72"/>
        </g>
        <path id="Fill_7" data-name="Fill 7" d="M25.505,4.4l-6,4V.725q-.491-.158-1-.285a14.849,14.849,0,0,0-8.207.3V8.4L4.323,4.42A14.819,14.819,0,0,0,1.087,9.337L2.67,10.392H.709c-.1.31-.189.625-.268.945A14.843,14.843,0,0,0,.754,19.6H2.709L1.143,20.643a15,15,0,0,0,3.284,4.884L10.3,21.614v7.492q.51.166,1.039.3a14.846,14.846,0,0,0,8.168-.283V21.614L25.4,25.543a14.819,14.819,0,0,0,3.292-4.878L27.1,19.6h1.994q.176-.536.315-1.094a14.853,14.853,0,0,0-.266-8.113h-2l1.613-1.075A14.991,14.991,0,0,0,25.505,4.4" transform="translate(0.029 1.053)" fill="#eeeae6"/>
        <path id="Fill_9" data-name="Fill 9" d="M14.936,29.842h0a14.943,14.943,0,0,1-2.721-.251V17.68H.256a14.8,14.8,0,0,1-.022-5.37H12.216V.247A14.791,14.791,0,0,1,14.9,0a14.981,14.981,0,0,1,2.684.244V12.309H29.613a14.8,14.8,0,0,1-.031,5.37H17.588V29.6A14.84,14.84,0,0,1,14.936,29.842Zm-11.2-5.048h0a15.085,15.085,0,0,1-1.231-1.6l5.4-3.592H10.3v.832L3.737,24.794ZM27.33,23.209h0L21.9,19.6h3.643l2.791,1.855a14.729,14.729,0,0,1-1,1.754ZM21.773,10.392H19.5V9.475l6.622-4.4a14.969,14.969,0,0,1,1.229,1.606l-5.582,3.714ZM8,10.392H4.359L1.468,8.468a14.815,14.815,0,0,1,1-1.76L8,10.39Z" transform="translate(0.03 1.053)" fill="#ee3826"/>
      </g>
      <path id="Fill_11" data-name="Fill 11" d="M0,0H0V.968C.327.784.5.61.5.447S.339.138,0,0" transform="translate(19.535 2.331)" fill="#2f3e66"/>
    </g>
  </g>
</svg>
