<svg xmlns="http://www.w3.org/2000/svg" width="61.922" height="19.151" viewBox="0 0 61.922 19.151">
  <g id="Сгруппировать_21" data-name="Сгруппировать 21" transform="translate(-1.059 -1.298)">
    <g id="logo" transform="translate(0.681 1.189)">
      <g id="registered" transform="translate(60.135 16.76)">
        <path id="registered-2" data-name="registered" d="M1,2.005a1,1,0,1,1,1-1A1,1,0,0,1,1,2.005ZM1,.241A.761.761,0,1,0,1.766,1,.762.762,0,0,0,1,.241Zm-.135,1.2H.662V.562h.373A.41.41,0,0,1,1.26.606a.269.269,0,0,1,.111.22.236.236,0,0,1-.151.228l.161.387H1.152l-.133-.348H.868v.348Z" transform="translate(0.158 0.112)" fill="#0161ab"/>
      </g>
      <path id="a" d="M5.052,18.5H0L7.23,1.378A2.245,2.245,0,0,1,9.469,0h3.9l3.881,18.5H12.8l-.568-2.748H6.063L5.053,18.5ZM10.008,5.032,7.461,11.957h3.981Z" transform="translate(42.547 0.439)" fill="#fff"/>
      <path id="s" d="M13.8,4.78,14.495.807A14.08,14.08,0,0,0,10.134,0c-2.406,0-8.12,1.045-8.12,6.125,0,4.78,6.707,4.84,6.707,7.349s-6.015,2.062-8,.479L0,18.105a13.649,13.649,0,0,0,5.473,1.046c3.307,0,8.3-1.7,8.3-6.334,0-4.81-6.767-5.259-6.767-7.35s4.722-1.823,6.8-.687" transform="translate(29.123 0.108)" fill="#fff"/>
      <path id="i" d="M4.848,18.5H0L3.03,0h4.85L4.848,18.5" transform="translate(21.287 0.439)" fill="#fff"/>
      <path id="v" d="M14.335,18.5H9.284L5.073,2.431A18.371,18.371,0,0,1,7.2,3.9a14.538,14.538,0,0,1,4.465,6.084l.547,2.74L16.831,0h5.218L14.335,18.5ZM10.018,1.6A2,2,0,0,0,9.669.833L9.643.8a1.766,1.766,0,0,1,.377.8Z" transform="translate(0.377 0.439)" fill="#fff"/>
      <path id="shape" d="M11.661,9.985,10.03,1.666A2.07,2.07,0,0,0,7.73,0H.089L0,.313A18.84,18.84,0,0,1,7.2,3.9a14.415,14.415,0,0,1,4.465,6.084" transform="translate(0.377 0.439)" fill="#fff"/>
    </g>
  </g>
</svg>
