<svg xmlns="http://www.w3.org/2000/svg" width="29.227" height="29.187" viewBox="0 0 29.227 29.187">
  <g id="Сгруппировать_21" data-name="Сгруппировать 21" transform="translate(-0.001 -0.086)">
    <path id="Fill_4" data-name="Fill 4" d="M15.154,29.032h-1.86a14.728,14.728,0,0,1-6.9-2.239H22.033A14.656,14.656,0,0,1,15.154,29.032Zm9.617-4.477H3.661A14.75,14.75,0,0,1,1.9,22.318H26.532a14.538,14.538,0,0,1-1.76,2.237Zm2.93-4.475H.732A14.641,14.641,0,0,1,0,17.842H28.427l-.008.035c-.006.027-.012.053-.019.08a14.841,14.841,0,0,1-.7,2.123ZM28.784,15.6H16.411v-2.24H28.792a14.6,14.6,0,0,1-.008,2.239Zm-.334-4.477H16.411V8.889H27.732a14.607,14.607,0,0,1,.718,2.236ZM26.576,6.653H16.411V4.413h8.431a14.654,14.654,0,0,1,1.733,2.239Zm-4.42-4.477H16.411V0c.461.071.9.16,1.316.262a14.593,14.593,0,0,1,4.427,1.912Z" transform="translate(0.397 0.241)" fill="#ee3826"/>
    <path id="Fill_6" data-name="Fill 6" d="M16.651,15.629H.047a14.423,14.423,0,0,1,.344-4.486l.186.134-.12.37.313-.228.313.228-.12-.37.312-.225H.891l-.121-.37-.119.37H.411l.008-.032.008-.032A14.447,14.447,0,0,1,2.386,6.5l.173.124-.084-.258,0-.006c.049-.072.115-.17.184-.265l.091-.066H2.71c.262-.366.541-.719.83-1.052l.125-.09.313.226-.12-.367.312-.228H3.957a14.49,14.49,0,0,1,1.36-1.265l.136.1L5.4,3.19A14.481,14.481,0,0,1,12.709.1l2.6-.1.339.038c.361.041.9.1,1,.116V15.628Zm-1.41-1.059h0l.312.227-.119-.367.312-.228h-.387l-.119-.367-.121.367h-.386l.312.228-.119.367.313-.227Zm-2.894,0h0l.312.227-.121-.367.313-.228h-.387l-.118-.367-.121.367H11.84l.312.228-.12.367.314-.227Zm-2.894,0h0l.312.227-.119-.367.313-.228H9.571l-.119-.367-.12.367H8.946l.312.228-.119.367.313-.227Zm-2.893,0h0l.312.227-.121-.367.312-.228H6.678l-.118-.367-.122.367H6.053l.312.228-.121.367.314-.227Zm-2.9,0h0l.314.227-.12-.367.312-.228H3.784l-.12-.367-.12.367H3.158l.313.228-.119.367.311-.227Zm-2.894,0h0l.313.227-.12-.367.312-.228H.891L.77,13.836.652,14.2H.265l.312.228-.12.367.313-.227ZM13.765,13.1h0l.313.227-.121-.367.314-.228h-.388l-.119-.367-.12.367h-.387l.313.228-.119.367.312-.227Zm-2.894,0h0l.312.227-.12-.367.312-.228H10.99l-.119-.367-.121.367h-.386l.312.228-.119.367.313-.227Zm-2.9-.114h0l.314.228-.12-.37.312-.226H8.1l-.12-.367-.12.367H7.47l.313.226-.12.37.312-.228Zm-2.893-.033h0l.313.227-.12-.367.313-.228H5.2l-.121-.367-.119.367H4.576l.314.228-.12.367.312-.227Zm-2.894-.058h0l.312.228-.12-.367.313-.229H2.307l-.118-.367-.12.367H1.682L2,12.753l-.121.367.314-.228Zm13.052-1.472h0l.312.227-.119-.37.312-.225h-.387l-.119-.37-.121.37h-.386l.312.225-.119.37.313-.227Zm-2.894,0h0l.312.227-.121-.37.313-.225h-.387l-.118-.37-.121.37H11.84l.312.225-.12.37.314-.227Zm-2.894,0h0l.312.227-.119-.37.313-.225H9.571l-.119-.37-.12.37H8.946l.312.225-.119.37.313-.227Zm-2.893,0h0l.312.227-.121-.37.312-.225H6.678l-.118-.37-.122.37H6.053l.312.225-.121.37.314-.227Zm-2.9,0h0l.313.227-.12-.37.312-.225H3.784l-.119-.37-.121.37H3.158l.313.225-.119.37.312-.227Zm10.129-1.55h0l.313.228-.12-.368L14.3,9.5h-.387l-.119-.367-.12.367h-.388l.314.228-.12.368.313-.228Zm-2.894,0h0l.313.228-.119-.368.312-.228h-.387l-.12-.367-.12.367h-.386l.313.228-.12.368L10.9,9.87ZM8.005,9.753h0l.312.228L8.2,9.615l.313-.229H8.124l-.119-.367-.12.367H7.5l.312.229-.12.367L8,9.754ZM5.112,9.722h0l.312.227-.119-.367.312-.228H5.23l-.118-.367-.121.367H4.605l.312.228L4.8,9.95l.313-.227Zm-2.9-.057h0l.313.227-.12-.367L2.723,9.3H2.336l-.12-.367L2.1,9.3H1.71l.313.228L1.9,9.893l.312-.227ZM15.241,8.116h0l.312.227-.119-.367.312-.228h-.387l-.119-.367-.121.367h-.386l.312.228-.119.367.313-.227Zm-2.894,0h0l.312.227-.121-.367.313-.228h-.387l-.118-.367-.121.367H11.84l.312.228-.12.367.314-.227Zm-2.894,0h0l.312.227-.119-.367.313-.228H9.571l-.119-.367-.12.367H8.946l.312.228-.119.367.313-.227Zm-2.893,0h0l.312.227-.121-.367.312-.228H6.678L6.56,7.382l-.122.367H6.053l.312.228-.121.367.314-.227Zm-2.9,0h0l.313.227-.12-.367.312-.228H3.784l-.119-.367-.121.367H3.158l.313.228-.119.367.312-.227ZM13.822,6.605h0l.312.227-.119-.367.313-.228h-.387l-.12-.368-.121.368h-.385l.313.228-.121.367.313-.227Zm-2.894,0h0l.313.227-.12-.367.313-.228h-.387l-.12-.368-.119.368h-.387l.312.228-.12.367.313-.227ZM8.033,6.491h0l.314.225-.12-.367.312-.229H8.153l-.12-.366-.12.366H7.528l.313.229-.12.367.312-.225ZM5.141,6.457h0l.312.228-.119-.367.313-.229H5.26l-.119-.367-.12.367H4.634l.313.229-.121.367.314-.228Zm10.1-1.568h0l.312.225-.119-.367.312-.228h-.387l-.119-.367-.121.367h-.386l.312.228-.119.367.313-.225Zm-2.893,0h0l.312.225-.121-.367.313-.228h-.387l-.118-.367-.121.367H11.84l.312.228-.12.367.314-.225Zm-2.894,0h0l.312.225-.119-.367.313-.228H9.571l-.119-.367-.12.367H8.946l.312.228-.119.367.313-.225Zm-2.893,0h0l.312.225-.121-.367.312-.228H6.678L6.56,4.153l-.122.367H6.053l.312.228-.121.367.314-.225Zm7.262-1.615h0l.312.227-.119-.369.313-.226h-.387l-.12-.369-.121.369h-.385l.313.226-.121.369.313-.227Zm-2.894,0h0l.313.227-.12-.369.313-.226h-.387l-.12-.369-.119.369h-.387l.312.226-.12.369.313-.227ZM8.033,3.158h0l.314.227-.12-.369.312-.226H8.153l-.12-.367-.12.367H7.528l.313.226-.12.369.312-.227Zm7.207-1.5h0l.312.227-.119-.367.312-.228h-.387L15.241.925l-.121.367h-.386l.312.228-.119.367.313-.227Zm-2.894,0h0l.312.227-.121-.367.313-.228h-.387L12.347.925l-.121.367H11.84l.312.228-.12.367.314-.227Zm-2.894,0h0l.312.227L9.646,1.52l.313-.228H9.571L9.453.925l-.12.367H8.946l.312.228-.119.367.313-.227Z" transform="translate(0.001 0.086)" fill="#223c72"/>
  </g>
</svg>
