<svg id="Сгруппировать_22" data-name="Сгруппировать 22" xmlns="http://www.w3.org/2000/svg" width="22" height="18.048" viewBox="0 0 22 18.048">
  <path id="Fill_1" data-name="Fill 1" d="M10.738,1.048H.262C.117,1.048,0,.813,0,.524S.117,0,.262,0H10.738c.145,0,.262.234.262.524s-.117.524-.262.524" transform="translate(5)" fill="#fff"/>
  <path id="Fill_3" data-name="Fill 3" d="M21.476,1.048H.524A.524.524,0,0,1,.524,0H21.476a.524.524,0,0,1,0,1.048" transform="translate(0 8)" fill="#fff"/>
  <path id="Fill_5" data-name="Fill 5" d="M10.738,1.048H.262C.117,1.048,0,.813,0,.524S.117,0,.262,0H10.738c.145,0,.262.234.262.524s-.117.524-.262.524" transform="translate(5 17)" fill="#fff"/>
</svg>
