<svg xmlns="http://www.w3.org/2000/svg" width="26.2" height="31.4" viewBox="0 0 26.2 31.4">
  <g id="Alert_LOGO" data-name="Alert LOGO" transform="translate(0.1 0.1)">
    <path id="Stroke_1" data-name="Stroke 1" d="M0,5.922A5.658,5.658,0,0,1,1.632,1.735,5.874,5.874,0,0,1,5.85,0" transform="translate(7.15 7.15)" fill="none" stroke="#fff" stroke-linecap="round" stroke-linejoin="round" stroke-miterlimit="10" stroke-width="1.5"/>
    <path id="Stroke_3" data-name="Stroke 3" d="M3.9,1.95A1.95,1.95,0,1,1,1.95,0,1.951,1.951,0,0,1,3.9,1.95Z" transform="translate(11.05 0.65)" fill="none" stroke="#fecd00" stroke-linecap="round" stroke-linejoin="round" stroke-miterlimit="10" stroke-width="1.5"/>
    <path id="Stroke_5" data-name="Stroke 5" d="M6.435,0A3.554,3.554,0,0,1,6.5.65,3.25,3.25,0,1,1,0,.65,3.554,3.554,0,0,1,.065,0" transform="translate(9.75 26.65)" fill="none" stroke="#fecd00" stroke-linecap="round" stroke-linejoin="round" stroke-miterlimit="10" stroke-width="1.5"/>
    <path id="Stroke_7" data-name="Stroke 7" d="M9.165,22.1H24.7c-3.808-3.523-3.9-5.811-3.9-13.585a8.251,8.251,0,0,0-2.379-6.006,8.607,8.607,0,0,0-12.142,0A8.251,8.251,0,0,0,3.9,8.512C3.9,16.286,3.809,18.574,0,22.1Z" transform="translate(0.65 4.553)" fill="none" stroke="#fecd00" stroke-linecap="round" stroke-linejoin="round" stroke-miterlimit="10" stroke-width="1.5"/>
  </g>
</svg>
