<svg xmlns="http://www.w3.org/2000/svg" width="39.334" height="37.667" viewBox="0 0 39.334 37.667">
  <g id="Group_13" data-name="Group 13" transform="translate(-0.333 -0.333)">
    <path id="Stroke_1" data-name="Stroke 1" d="M20,10A10,10,0,1,1,10,0,10,10,0,0,1,20,10Z" transform="translate(19.167 0.833)" fill="none" stroke="#000" stroke-linecap="round" stroke-linejoin="round" stroke-miterlimit="10" stroke-width="1"/>
    <path id="Stroke_3" data-name="Stroke 3" d="M6.475,1.7A2.9,2.9,0,0,0,5.95.817a2.455,2.455,0,0,0-.778-.6A2.183,2.183,0,0,0,4.222,0H2.445A2.176,2.176,0,0,0,1.5.218a2.455,2.455,0,0,0-.778.6A2.866,2.866,0,0,0,.192,1.7a3.129,3.129,0,0,0,0,2.157,2.866,2.866,0,0,0,.527.883,2.449,2.449,0,0,0,.778.6,2.153,2.153,0,0,0,.948.218H4.222a2.161,2.161,0,0,1,.95.22,2.449,2.449,0,0,1,.778.6,2.9,2.9,0,0,1,.525.883,3.129,3.129,0,0,1,0,2.157,2.9,2.9,0,0,1-.525.883,2.455,2.455,0,0,1-.778.6,2.182,2.182,0,0,1-.95.217H2.445a2.175,2.175,0,0,1-.948-.217,2.455,2.455,0,0,1-.778-.6,2.866,2.866,0,0,1-.527-.883" transform="translate(25.833 5.278)" fill="none" stroke="#000" stroke-linecap="round" stroke-linejoin="round" stroke-miterlimit="10" stroke-width="1"/>
    <path id="Stroke_5" data-name="Stroke 5" d="M0,0V13.333" transform="translate(29.167 4.167)" fill="none" stroke="#000" stroke-linecap="round" stroke-linejoin="round" stroke-miterlimit="10" stroke-width="1"/>
    <path id="Stroke_7" data-name="Stroke 7" d="M4.048,14.495,0,12.567,5.59,0,9.638,1.927Z" transform="translate(0.833 23.005)" fill="none" stroke="#000" stroke-linecap="round" stroke-linejoin="round" stroke-miterlimit="10" stroke-width="1"/>
    <path id="Stroke_9" data-name="Stroke 9" d="M0,3.708,6.168.461a3.972,3.972,0,0,1,4.765.812l.645.68L4.572,5.65,2.563,6.7" transform="translate(9.906 22.5)" fill="none" stroke="#000" stroke-linecap="round" stroke-linejoin="round" stroke-miterlimit="10" stroke-width="1"/>
    <path id="Stroke_11" data-name="Stroke 11" d="M8.817,0l5.55,3.483L20.45.583A4.286,4.286,0,0,1,24.9.7l1.967,1.267-11,5.7H0" transform="translate(5.615 28.167)" fill="none" stroke="#000" stroke-linecap="round" stroke-linejoin="round" stroke-miterlimit="10" stroke-width="1"/>
  </g>
</svg>
