<svg xmlns="http://www.w3.org/2000/svg" width="39.833" height="26.5" viewBox="0 0 39.833 26.5">
  <g id="Price_LOGO" data-name="Price LOGO" transform="translate(-0.083 -0.083)">
    <path id="Stroke_1" data-name="Stroke 1" d="M5,2.5A2.5,2.5,0,1,1,2.5,0,2.5,2.5,0,0,1,5,2.5Z" transform="translate(0.833 20.833)" fill="none" stroke="#fecd00" stroke-linecap="round" stroke-linejoin="round" stroke-miterlimit="10" stroke-width="1.5"/>
    <path id="Stroke_5" data-name="Stroke 5" d="M5,2.5A2.5,2.5,0,1,1,2.5,0,2.5,2.5,0,0,1,5,2.5Z" transform="translate(24.167 14.167)" fill="none" stroke="#fecd00" stroke-linecap="round" stroke-linejoin="round" stroke-miterlimit="10" stroke-width="1.5"/>
    <path id="Stroke_7" data-name="Stroke 7" d="M5,2.5A2.5,2.5,0,1,1,2.5,0,2.5,2.5,0,0,1,5,2.5Z" transform="translate(34.167 0.833)" fill="none" stroke="#fecd00" stroke-linecap="round" stroke-linejoin="round" stroke-miterlimit="10" stroke-width="1.5"/>
    <path id="Stroke_9" data-name="Stroke 9" d="M6.475,0,0,8.147" transform="translate(4.998 13.333)" fill="none" stroke="#fecd00" stroke-linecap="round" stroke-linejoin="round" stroke-miterlimit="10" stroke-width="1.5"/>
    <path id="Stroke_11" data-name="Stroke 11" d="M8.635,3.34,0,0" transform="translate(15.658 12.58)" fill="none" stroke="#fecd00" stroke-linecap="round" stroke-linejoin="round" stroke-miterlimit="10" stroke-width="1.5"/>
    <path id="Stroke_13" data-name="Stroke 13" d="M0,9.375,6.973,0" transform="translate(28.18 5.312)" fill="none" stroke="#fecd00" stroke-linecap="round" stroke-linejoin="round" stroke-miterlimit="10" stroke-width="1.5"/>
    <path id="Stroke_3" data-name="Stroke 3" d="M5,2.5A2.5,2.5,0,1,1,2.5,0,2.5,2.5,0,0,1,5,2.5Z" transform="translate(10.833 9.167)" fill="none" stroke="#fff" stroke-linecap="round" stroke-linejoin="round" stroke-miterlimit="10" stroke-width="1.5"/>
  </g>
</svg>
