<svg xmlns="http://www.w3.org/2000/svg" width="26.417" height="25.333" viewBox="0 0 26.417 25.333">
  <g id="Setting_LOGO" data-name="Setting LOGO" transform="translate(0.208 0.208)">
    <path id="Stroke_1" data-name="Stroke 1" d="M0,3.25A3.25,3.25,0,1,1,3.25,6.5,3.246,3.246,0,0,1,0,3.25Z" transform="translate(3.792 0.542)" fill="none" stroke="#fecd00" stroke-linecap="round" stroke-linejoin="round" stroke-miterlimit="10" stroke-width="1.5"/>
    <path id="Stroke_3" data-name="Stroke 3" d="M0,0H15.167" transform="translate(10.292 3.792)" fill="none" stroke="#fecd00" stroke-linecap="round" stroke-linejoin="round" stroke-miterlimit="10" stroke-width="1.5"/>
    <path id="Stroke_5" data-name="Stroke 5" d="M0,0H3.25" transform="translate(0.542 3.792)" fill="none" stroke="#fecd00" stroke-linecap="round" stroke-linejoin="round" stroke-miterlimit="10" stroke-width="1.5"/>
    <path id="Stroke_9" data-name="Stroke 9" d="M0,0H5.417" transform="translate(20.042 12.458)" fill="none" stroke="#fecd00" stroke-linecap="round" stroke-linejoin="round" stroke-miterlimit="10" stroke-width="1.5"/>
    <path id="Stroke_11" data-name="Stroke 11" d="M0,0H13" transform="translate(0.542 12.458)" fill="none" stroke="#fecd00" stroke-linecap="round" stroke-linejoin="round" stroke-miterlimit="10" stroke-width="1.5"/>
    <path id="Stroke_13" data-name="Stroke 13" d="M0,3.25A3.25,3.25,0,1,1,3.25,6.5,3.246,3.246,0,0,1,0,3.25Z" transform="translate(7.042 17.875)" fill="none" stroke="#fecd00" stroke-linecap="round" stroke-linejoin="round" stroke-miterlimit="10" stroke-width="1.5"/>
    <path id="Stroke_15" data-name="Stroke 15" d="M0,0H11.917" transform="translate(13.542 21.125)" fill="none" stroke="#fecd00" stroke-linecap="round" stroke-linejoin="round" stroke-miterlimit="10" stroke-width="1.5"/>
    <path id="Stroke_17" data-name="Stroke 17" d="M0,0H6.5" transform="translate(0.542 21.125)" fill="none" stroke="#fecd00" stroke-linecap="round" stroke-linejoin="round" stroke-miterlimit="10" stroke-width="1.5"/>
    <path id="Stroke_7" data-name="Stroke 7" d="M0,3.25A3.25,3.25,0,1,1,3.25,6.5,3.246,3.246,0,0,1,0,3.25Z" transform="translate(13.542 9.208)" fill="none" stroke="#fff" stroke-linecap="round" stroke-linejoin="round" stroke-miterlimit="10" stroke-width="1.5"/>
  </g>
</svg>
