<svg xmlns="http://www.w3.org/2000/svg" width="34.722" height="26.056" viewBox="0 0 34.722 26.056">
  <g id="Wallet_LOGO" data-name="Wallet LOGO" transform="translate(0.028 0.027)">
    <path id="Stroke_1" data-name="Stroke 1" d="M31.778,17.351v5.755a1.447,1.447,0,0,1-1.444,1.45H1.444A1.447,1.447,0,0,1,0,23.105V1.449A1.447,1.447,0,0,1,1.444,0H30.333a1.447,1.447,0,0,1,1.444,1.449V7.2" transform="translate(0.722 0.723)" fill="none" stroke="#fecd00" stroke-linecap="round" stroke-linejoin="round" stroke-miterlimit="10" stroke-width="1.5"/>
    <path id="Stroke_3" data-name="Stroke 3" d="M13,10.111H5.056A5.056,5.056,0,0,1,5.056,0H13Z" transform="translate(20.944 7.944)" fill="none" stroke="#fff" stroke-linecap="round" stroke-linejoin="round" stroke-miterlimit="10" stroke-width="1.5"/>
    <path id="Stroke_5" data-name="Stroke 5" d="M4.333,2.167A2.167,2.167,0,1,1,2.167,0,2.166,2.166,0,0,1,4.333,2.167Z" transform="translate(23.833 10.833)" fill="none" stroke="#fecd00" stroke-linecap="round" stroke-linejoin="round" stroke-miterlimit="10" stroke-width="1.5"/>
  </g>
</svg>
